<?xml version="1.0" standalone="no"?>
<!DOCTYPE svg PUBLIC "-//W3C//DTD SVG 20010904//EN"
 "http://www.w3.org/TR/2001/REC-SVG-20010904/DTD/svg10.dtd">
<svg version="1.0" xmlns="http://www.w3.org/2000/svg"
 width="512.000000pt" height="512.000000pt" viewBox="0 0 512.000000 512.000000"
 preserveAspectRatio="xMidYMid meet">
<metadata>
Created by potrace 1.16, written by Peter Selinger 2001-2019
</metadata>
<g transform="translate(0.000000,512.000000) scale(0.100000,-0.100000)"
fill="#000000" stroke="none">
<path d="M1325 4843 c-355 -46 -657 -195 -902 -444 -182 -186 -308 -407 -376
-660 -39 -146 -50 -257 -44 -441 8 -235 44 -384 143 -593 53 -113 106 -195
199 -310 92 -113 2070 -2077 2116 -2100 19 -10 63 -20 100 -23 112 -8 123 1
426 310 147 150 601 608 1008 1018 408 410 766 777 797 815 224 282 328 578
328 935 0 222 -31 383 -111 579 -71 173 -175 331 -312 470 -212 216 -472 359
-765 421 -127 27 -360 37 -484 21 -326 -44 -622 -181 -840 -390 l-48 -45 -47
45 c-268 256 -644 401 -1028 397 -71 0 -143 -3 -160 -5z m365 -178 c327 -53
576 -191 813 -453 l57 -63 62 68 c240 261 480 394 808 448 683 110 1348 -353
1497 -1045 14 -66 18 -128 18 -275 -1 -165 -4 -202 -24 -285 -28 -113 -58
-195 -107 -293 -93 -185 -98 -192 -1029 -1132 -484 -490 -947 -959 -1030
-1042 -124 -127 -154 -153 -178 -153 -24 0 -78 48 -345 309 -599 585 -1768
1765 -1814 1831 -102 146 -183 329 -224 505 -27 113 -27 414 -1 535 149 692
812 1154 1497 1045z"/>
</g>
</svg>
